<svg width="684" height="426" viewBox="0 0 684 426" fill="none" xmlns="http://www.w3.org/2000/svg">
<g filter="url(#filter0_d_1_487)">
<g clip-path="url(#clip0_1_487)">
<path opacity="0.1" d="M676.589 279.368C676.6 290.661 675.238 301.913 672.531 312.875C671.62 316.565 670.562 320.182 669.357 323.725C667.88 328.094 666.172 332.381 664.238 336.567C663.262 338.68 662.231 340.755 661.144 342.792C661.161 354.372 658.783 365.83 654.159 376.442C645.797 395.48 630.892 410.874 612.158 419.821C600.429 425.429 587.611 428.376 574.617 428.451H128.916C109.085 428.495 89.595 423.275 72.429 413.32C69.8922 411.847 67.4204 410.279 65.0137 408.614C59.788 404.995 54.8785 400.938 50.338 396.486C44.191 390.459 38.7757 383.725 34.2045 376.425C23.4648 359.331 17.7755 339.537 17.7955 319.336C6.91927 300.206 0.577215 277.291 0.577215 252.668C0.577215 221.6 10.6556 193.26 27.2139 171.806C30.6659 167.324 34.4472 163.107 38.5262 159.189C42.5509 155.313 46.8768 151.764 51.4629 148.575C55.1308 146.019 58.9657 143.712 62.9417 141.671C64.6004 140.82 66.2649 140.026 67.958 139.283C69.4445 138.622 70.9482 138.006 72.4692 137.425C74.2943 136.727 76.1424 136.088 78.0134 135.509C79.8845 134.93 81.7307 134.42 83.552 133.979C86.2304 133.323 88.9547 132.79 91.7249 132.38C94.0207 132.04 96.3164 131.804 98.6122 131.62C100.437 131.49 102.278 131.413 104.134 131.39H105.138C107.181 131.39 109.213 131.471 111.227 131.609C111.44 131.183 111.669 130.751 111.882 130.326C112.685 128.795 113.517 127.265 114.355 125.763V125.723C114.499 125.464 114.642 125.205 114.792 124.952C115.469 123.727 116.175 122.513 116.898 121.31C117.231 120.735 117.558 120.194 117.897 119.648C117.971 119.515 118.046 119.389 118.132 119.256C118.476 118.681 118.826 118.106 119.182 117.531C120.954 114.696 122.796 111.906 124.709 109.16C124.876 108.924 125.031 108.694 125.197 108.463C125.496 108.038 125.771 107.618 126.104 107.198C126.896 106.087 127.711 104.971 128.532 103.872C129.106 103.096 129.68 102.319 130.3 101.571C131.792 99.6381 133.324 97.7165 134.891 95.8179C136.458 93.9194 138.111 92.0093 139.781 90.1395C140.011 89.8806 140.24 89.6275 140.481 89.3686L142.932 86.6933C143.053 86.5668 143.156 86.4517 143.271 86.3366C143.563 86.0202 143.845 85.7038 144.16 85.3931C145.475 84.0008 146.823 82.6258 148.178 81.2681C155.096 74.377 162.467 67.9575 170.24 62.0523C170.544 61.8107 170.854 61.5806 171.158 61.3505C172.616 60.2458 174.097 59.1585 175.578 58.0884C183.724 52.2334 192.238 46.9102 201.067 42.152C201.675 41.8068 202.295 41.4789 202.92 41.1509C210.838 36.9553 218.979 33.1985 227.307 29.8977C231.845 28.0988 236.463 26.4189 241.162 24.8579C244.273 23.8395 247.395 22.8673 250.558 21.9813C255.448 20.5736 260.399 19.3041 265.411 18.1726C280.178 14.8512 295.201 12.7995 310.316 12.0397C314.908 11.7981 319.551 11.6773 324.246 11.6773C346.899 11.6472 369.465 14.5085 391.397 20.192C391.624 20.5355 391.934 20.8156 392.299 21.0058C392.663 21.196 393.07 21.2902 393.481 21.2794H395.409C396.247 21.5037 397.079 21.7396 397.917 21.9813C402.597 23.3352 407.209 24.8099 411.755 26.4055L412.903 26.8197C424.122 30.8187 435.038 35.6255 445.566 41.2027C455.055 46.2202 464.192 51.8791 472.914 58.1402C474.257 59.1067 475.581 60.0828 476.886 61.0685C478.47 60.0445 480.081 59.0683 481.718 58.1402C488.043 54.5315 494.76 51.663 501.737 49.5909C516.326 45.2634 531.762 44.6583 546.643 47.8304C565.726 51.8864 583.002 61.9545 596.954 76.2743C602.638 82.1143 607.701 88.5311 612.061 95.421C612.376 95.9157 612.692 96.4163 612.996 96.9225C616.736 103.041 619.95 109.468 622.604 116.132C622.701 116.374 622.799 116.61 622.885 116.852C625.335 123.089 627.312 129.503 628.797 136.039C628.866 136.367 628.946 136.7 629.015 137.034C630.404 143.359 631.347 149.774 631.839 156.232C631.839 156.462 631.839 156.698 631.885 156.934C632.126 160.275 632.248 163.652 632.252 167.066C632.252 170.115 632.149 173.141 631.959 176.138C631.959 176.466 631.913 176.812 631.885 177.145C631.833 178.02 631.758 178.871 631.684 179.751C636.067 183.294 640.17 187.172 643.955 191.35C645.627 193.179 647.245 195.08 648.81 197.051C653.578 203.039 657.768 209.467 661.322 216.25C671.01 234.649 676.589 256.246 676.589 279.368Z" fill="#6C63FF"/>
<path opacity="0.1" d="M615.145 380.943C615.145 394.02 601.623 406.257 578.028 416.797H132.328C111.706 416.797 92.3928 409.318 75.8403 396.275C71.6792 391.327 69.4868 386.201 69.4868 380.937C69.4868 367.037 84.7766 354.064 111.212 343.098L111.958 342.799C119.42 339.733 127.759 336.839 136.873 334.118C137.103 334.048 137.338 333.985 137.568 333.905C144.799 331.776 152.492 329.759 160.646 327.852C160.904 327.795 161.157 327.731 161.415 327.685C164.56 326.938 167.769 326.241 171.046 325.545L172.308 325.281C196.156 320.321 223.263 316.386 252.66 313.717H252.695C256.812 313.333 260.973 312.99 265.178 312.687C269.856 312.313 274.591 311.996 279.377 311.703C283.033 311.467 286.735 311.266 290.449 311.082C290.462 311.076 290.477 311.073 290.492 311.073C290.506 311.073 290.521 311.076 290.535 311.082C307.288 310.236 324.598 309.793 342.298 309.793C386.067 309.793 427.437 312.485 464.095 317.272C464.129 317.266 464.164 317.266 464.198 317.272C469.834 318.009 475.367 318.785 480.762 319.614C482.306 319.855 483.844 320.097 485.353 320.344C491.441 321.33 497.372 322.371 503.146 323.468C571.043 336.407 615.145 357.343 615.145 380.943Z" fill="#6C63FF"/>
<path d="M504.19 139.964C504.19 139.964 498.118 137.496 478.799 146.373C459.48 155.25 457.07 154.128 452.071 152.794C447.072 151.459 444.282 151.114 438.922 143.698C438.922 143.698 435.139 123.153 431.46 119.966C427.781 116.779 412.25 121.784 412.25 121.784C412.25 121.784 393.603 126.07 390.05 101.072C390.05 101.072 392.57 82.2478 389.138 76.4716C389.138 76.4716 396.071 79.4633 407.504 74.6306C418.937 69.7979 428.091 79.8372 428.091 79.8372C428.091 79.8372 430.961 87.3164 430.674 91.7809C430.387 96.2454 432.201 97.9196 437.653 95.7621C437.653 95.7621 440.333 91.942 436.54 85.625C432.746 79.3079 430.037 74.6076 431.093 69.7058C432.149 64.8041 435.197 57.9981 444.982 54.5979C454.768 51.1978 468.055 50.5707 474.431 47.8839C480.808 45.1972 482.38 43.4827 482.38 43.4827C482.38 43.4827 478.455 47.4237 487.701 64.1367C496.947 80.8498 491.053 88.0989 491.053 88.0989C491.053 88.0989 486.134 99.8527 464.416 98.8976C464.416 98.8976 443.49 99.6628 454.9 108.557C454.9 108.557 462.206 107.067 473.128 103.586C484.051 100.106 491.937 114.472 493.894 124.465C495.851 134.458 504.19 139.964 504.19 139.964Z" fill="#6C63FF"/>
<path d="M476.061 56.1398L476.176 56.1053C477.014 59.2926 467.665 72.1107 459.67 82.2996L459.578 82.2248C470.85 67.8763 476.71 58.6079 476.061 56.1398Z" fill="#444053"/>
<path d="M459.738 82.0292L459.79 82.1558C453.402 90.2908 445.373 99.9907 438.945 107.199C438.33 107.884 437.722 108.603 437.137 109.34L436.953 109.19C437.527 108.454 438.152 107.729 438.767 107.044C445.189 99.8642 453.345 90.17 459.738 82.0292Z" fill="#444053"/>
<path d="M437.108 109.006L437.234 109.225C425.537 123.867 424.762 146.62 424.734 146.799L422.266 143.922C422.294 143.738 425.331 123.751 437.108 109.006Z" fill="#444053"/>
<path d="M490.651 132.025C490.651 132.025 476.876 124.833 466.109 127.422C455.342 130.011 431.127 118.274 431.127 118.274C431.127 118.274 420.854 114.092 418.788 109.322C418.788 109.322 411.734 101.843 411.326 97.9829C410.919 94.1225 404.06 84.3938 399.584 84.0199" stroke="#444053" stroke-width="0.573942" stroke-miterlimit="10"/>
<path d="M488.625 138.946C488.625 138.946 481.68 134.251 482.489 128.786" stroke="#444053" stroke-width="0.573942" stroke-miterlimit="10"/>
<path d="M477.973 145.004C477.973 145.004 468.038 141.391 467.068 127.215" stroke="#444053" stroke-width="0.573942" stroke-miterlimit="10"/>
<path d="M461.954 148.674C461.954 148.674 452.461 140.781 455.612 126.985" stroke="#444053" stroke-width="0.573942" stroke-miterlimit="10"/>
<path d="M442.675 144.82C442.675 144.82 436.362 131.53 441.981 122.883" stroke="#444053" stroke-width="0.573942" stroke-miterlimit="10"/>
<path d="M490.783 123.262C490.783 123.262 483.603 125.564 485.141 129.338" stroke="#444053" stroke-width="0.573942" stroke-miterlimit="10"/>
<path d="M482.116 110.22C482.116 110.22 472.503 113.275 472.279 126.904" stroke="#444053" stroke-width="0.573942" stroke-miterlimit="10"/>
<path d="M468.709 107.044C468.709 107.044 459.957 117.872 460.599 127.71" stroke="#444053" stroke-width="0.573942" stroke-miterlimit="10"/>
<path d="M453.385 111.29C453.385 111.29 444.695 119.621 445.803 124.252" stroke="#444053" stroke-width="0.573942" stroke-miterlimit="10"/>
<path d="M448.145 108.35C448.145 108.35 439.995 109.811 438.853 107.13" stroke="#444053" stroke-width="0.573942" stroke-miterlimit="10"/>
<path d="M437.556 98.4891C437.556 98.4891 441.671 103.955 442.721 102.729" stroke="#444053" stroke-width="0.573942" stroke-miterlimit="10"/>
<path d="M478.374 95.0314C478.374 95.0314 457.827 96.5273 453.178 90.3138" stroke="#444053" stroke-width="0.573942" stroke-miterlimit="10"/>
<path d="M433.257 70.9428C433.257 70.9428 442.893 91.6831 449.901 94.3238" stroke="#444053" stroke-width="0.573942" stroke-miterlimit="10"/>
<path d="M443.347 61.0645C443.347 61.0645 449.264 80.1422 456.599 86.0968" stroke="#444053" stroke-width="0.573942" stroke-miterlimit="10"/>
<path d="M487.018 79.2849C487.018 79.2849 471.395 86.0047 462.017 79.2044" stroke="#444053" stroke-width="0.430456" stroke-miterlimit="10"/>
<path d="M457.259 56.997C457.259 56.997 460.829 71.0176 465.639 74.4062" stroke="#444053" stroke-width="0.430456" stroke-miterlimit="10"/>
<path d="M484.659 63.5729C484.659 63.5729 475.878 66.9098 472.606 64.3554" stroke="#444053" stroke-width="0.430456" stroke-miterlimit="10"/>
<path d="M430.031 103.069C430.031 103.069 430.031 115.294 426.714 116.163" stroke="#444053" stroke-width="0.573942" stroke-miterlimit="10"/>
<path d="M402.889 118.907C402.889 118.907 416.09 120.058 422.157 113.217" stroke="#444053" stroke-width="0.573942" stroke-miterlimit="10"/>
<path d="M426.633 88.6281C426.633 88.6281 423.442 101.026 414.638 104.369" stroke="#444053" stroke-width="0.573942" stroke-miterlimit="10"/>
<path d="M394.981 105.847C394.981 105.847 404.313 109.098 412.342 100.819" stroke="#444053" stroke-width="0.573942" stroke-miterlimit="10"/>
<path d="M416.251 77.9675C416.251 77.9675 415.373 88.4958 409.662 93.4263" stroke="#444053" stroke-width="0.573942" stroke-miterlimit="10"/>
<path d="M395.336 89.8018C395.336 89.8018 403.079 89.8536 404.893 87.3222" stroke="#444053" stroke-width="0.573942" stroke-miterlimit="10"/>
<path d="M451.336 129.781H230.827V241.359H451.336V129.781Z" fill="#33323D"/>
<path d="M520.725 275.256H162.138V348.702H520.725V275.256Z" fill="#33323D"/>
<path d="M247.736 293.615H431.61L468.244 417.199H208.989L247.736 293.615Z" fill="white"/>
<path d="M151.922 231.469V269.607V277.638V348.696H220.611V280.906H462.252V348.696H530.942V277.638V269.607V231.469H151.922Z" fill="#504F60"/>
<path opacity="0.1" d="M530.942 231.469H151.922V269.601H530.942V231.469Z" fill="#33323D"/>
<path opacity="0.8" d="M510.515 256.19C513.628 256.19 516.151 253.661 516.151 250.541C516.151 247.42 513.628 244.891 510.515 244.891C507.402 244.891 504.879 247.42 504.879 250.541C504.879 253.661 507.402 256.19 510.515 256.19Z" fill="#8CCF4D"/>
<path opacity="0.8" d="M485.153 256.19C488.265 256.19 490.789 253.661 490.789 250.541C490.789 247.42 488.265 244.891 485.153 244.891C482.04 244.891 479.516 247.42 479.516 250.541C479.516 253.661 482.04 256.19 485.153 256.19Z" fill="#FA5959"/>
<path d="M443.238 102.942H238.932V224.404H443.238V102.942Z" fill="white"/>
<path d="M474.317 280.221C474.747 284.922 471.206 289.484 472.239 294.087C472.457 295.07 472.882 296.002 473.037 296.963C473.461 299.696 471.837 302.285 470.282 304.575L456.949 324.239C456.414 325.102 455.774 325.894 455.044 326.598C452.49 328.899 448.667 328.635 445.321 329.314C442.969 329.792 440.747 330.773 438.807 332.19C438.722 332.257 438.666 332.354 438.65 332.461C438.634 332.568 438.66 332.677 438.721 332.765C439.272 333.524 440.004 334.132 440.851 334.534C441.697 334.936 442.63 335.119 443.565 335.067C443.915 335.527 443.565 336.217 443.083 336.54C442.365 337.034 441.361 337.167 441.24 338.386C441.19 338.81 441.274 339.239 441.481 339.612C442.021 340.436 442.858 341.017 443.817 341.234C448.409 342.649 453.419 340.164 456.874 336.781C460.33 333.398 462.809 329.129 466.201 325.683C468.078 323.779 470.219 322.145 472.147 320.298C476.004 316.616 479.034 312.134 481.904 307.641C482.852 306.338 483.566 304.88 484.016 303.332C484.372 301.802 484.211 300.185 484.625 298.666C485.164 296.681 486.616 295.099 487.821 293.431C490.192 290.163 491.77 286.17 491.454 282.143C491.139 278.116 488.659 274.152 484.871 272.783C483.697 272.314 482.403 272.235 481.181 272.558C479.626 273.036 478.483 274.324 477.422 275.556L474.89 278.484C474.26 279.132 473.759 279.896 473.415 280.733C473.252 281.156 473.215 281.616 473.308 282.059C473.4 282.503 473.619 282.909 473.938 283.23" fill="#FBBEBE"/>
<path opacity="0.05" d="M474.317 280.221C474.747 284.922 471.206 289.484 472.239 294.087C472.457 295.07 472.882 296.002 473.037 296.963C473.461 299.696 471.837 302.285 470.282 304.575L456.949 324.239C456.414 325.102 455.774 325.894 455.044 326.598C452.49 328.899 448.667 328.635 445.321 329.314C442.969 329.792 440.747 330.773 438.807 332.19C438.722 332.257 438.666 332.354 438.65 332.461C438.634 332.568 438.66 332.677 438.721 332.765C439.272 333.524 440.004 334.132 440.851 334.534C441.697 334.936 442.63 335.119 443.565 335.067C443.915 335.527 443.565 336.217 443.083 336.54C442.365 337.034 441.361 337.167 441.24 338.386C441.19 338.81 441.274 339.239 441.481 339.612C442.021 340.436 442.858 341.017 443.817 341.234C448.409 342.649 453.419 340.164 456.874 336.781C460.33 333.398 462.809 329.129 466.201 325.683C468.078 323.779 470.219 322.145 472.147 320.298C476.004 316.616 479.034 312.134 481.904 307.641C482.852 306.338 483.566 304.88 484.016 303.332C484.372 301.802 484.211 300.185 484.625 298.666C485.164 296.681 486.616 295.099 487.821 293.431C490.192 290.163 491.77 286.17 491.454 282.143C491.139 278.116 488.659 274.152 484.871 272.783C483.697 272.314 482.403 272.235 481.181 272.558C479.626 273.036 478.483 274.324 477.422 275.556L474.89 278.484C474.26 279.132 473.759 279.896 473.415 280.733C473.252 281.156 473.215 281.616 473.308 282.059C473.4 282.503 473.619 282.909 473.938 283.23" fill="black"/>
<path d="M484.412 401.206C481.497 402.983 477.869 403.098 474.483 402.678C473.909 402.615 473.295 402.575 472.945 402.995C472.44 403.611 473.037 404.508 473.651 405.003C475.651 406.504 477.999 407.472 480.475 407.816C482.684 408.125 484.913 408.273 487.144 408.259C493.228 408.363 499.346 408.466 505.372 407.586C505.72 407.56 506.059 407.46 506.365 407.293C506.754 407.02 507.024 406.608 507.117 406.142C507.536 404.577 506.738 402.886 505.539 401.798C504.339 400.711 502.795 400.101 501.286 399.497L495.994 397.432C494.749 396.943 492.757 395.66 491.403 395.757C488.929 395.959 486.513 399.974 484.412 401.206Z" fill="#3F3D56"/>
<path opacity="0.05" d="M484.412 401.206C481.497 402.983 477.869 403.098 474.483 402.678C473.909 402.615 473.295 402.575 472.945 402.995C472.44 403.611 473.037 404.508 473.651 405.003C475.651 406.504 477.999 407.472 480.475 407.816C482.684 408.125 484.913 408.273 487.144 408.259C493.228 408.363 499.346 408.466 505.372 407.586C505.72 407.56 506.059 407.46 506.365 407.293C506.754 407.02 507.024 406.608 507.117 406.142C507.536 404.577 506.738 402.886 505.539 401.798C504.339 400.711 502.795 400.101 501.286 399.497L495.994 397.432C494.749 396.943 492.757 395.66 491.403 395.757C488.929 395.959 486.513 399.974 484.412 401.206Z" fill="black"/>
<path d="M488.103 330.758C485.904 333.698 483.62 337.086 484.165 340.728C484.458 342.69 485.554 344.421 486.358 346.234C487.364 348.727 488.108 351.318 488.579 353.966C489.405 357.815 490.232 361.675 490.737 365.582C491.311 369.994 488.613 382.761 488.361 387.208C488.298 388.278 488.177 389.44 487.431 390.211C487.138 390.516 486.748 390.787 486.622 391.161C486.541 391.541 486.603 391.938 486.794 392.277C488.039 395.09 490.582 397.178 493.406 398.375C496.23 399.572 503.1 401.626 506.165 401.735C506.572 401.784 506.984 401.729 507.364 401.574C507.778 401.326 508.103 400.953 508.294 400.51C510.509 396.269 508.38 381.173 508.414 376.381C508.414 372.353 509.384 368.418 509.212 364.425C509.069 361.221 508.214 358.097 507.904 354.898C507.393 349.657 508.351 344.398 509.315 339.221C510.05 335.257 510.785 331.287 511.726 327.363C512.3 324.976 512.966 322.559 514.28 320.459C515.319 318.808 516.731 317.433 517.919 315.857C521.212 311.53 522.673 306.078 521.988 300.68C521.919 300.151 514.343 302.607 513.683 302.895C510.964 304.054 508.463 305.669 506.285 307.67C504.563 309.338 503.157 311.576 501.619 313.452C499.449 316.098 497.309 318.766 495.197 321.455C492.797 324.542 490.433 327.643 488.103 330.758Z" fill="#464353"/>
<path opacity="0.05" d="M488.103 330.568C485.904 333.508 483.62 336.896 484.165 340.544C484.458 342.5 485.554 344.232 486.358 346.044C487.363 348.537 488.107 351.129 488.579 353.776C489.405 357.625 490.232 361.486 490.737 365.392C491.311 369.805 488.613 382.577 488.361 387.024C488.298 388.088 488.177 389.256 487.431 390.021C487.138 390.326 486.748 390.597 486.622 390.971C486.535 391.362 486.596 391.773 486.794 392.121C488.039 394.929 490.582 397.023 493.406 398.214C496.23 399.405 503.1 400.515 506.165 400.613C506.572 400.662 506.984 400.607 507.364 400.452C507.778 400.204 508.103 399.831 508.294 399.388C510.509 395.148 508.38 381.012 508.414 376.225C508.414 372.198 509.384 368.257 509.212 364.264C509.069 361.06 508.214 357.936 507.904 354.737C507.393 349.496 508.351 344.237 509.315 339.065C510.05 335.096 510.785 331.126 511.726 327.202C512.3 324.815 512.966 322.398 514.28 320.298C515.319 318.653 516.731 317.272 517.919 315.73C521.208 311.402 522.669 305.951 521.988 300.553C521.919 300.018 514.343 302.475 513.683 302.768C510.962 303.928 508.46 305.547 506.285 307.555C504.563 309.229 503.157 311.461 501.619 313.308C499.449 315.955 497.309 318.624 495.197 321.317C492.797 324.385 490.433 327.469 488.103 330.568Z" fill="black"/>
<path d="M463.601 266.028C470.426 266.028 475.958 260.483 475.958 253.642C475.958 246.801 470.426 241.255 463.601 241.255C456.776 241.255 451.244 246.801 451.244 253.642C451.244 260.483 456.776 266.028 463.601 266.028Z" fill="#FBBEBE"/>
<path d="M474.724 253.124C475.865 254.951 477.361 256.529 479.123 257.764C480.885 259 482.877 259.867 484.98 260.315L484.051 263.692C482.444 269.52 480.607 275.682 476.147 279.721C476.635 277.748 476.004 275.625 474.89 273.927C473.7 272.276 472.288 270.797 470.695 269.532L463.584 263.33C463.372 263.173 463.191 262.978 463.05 262.755C462.878 262.319 462.878 261.833 463.05 261.397C463.957 258.572 466.545 256.794 468.64 254.896C469.694 253.906 470.637 252.805 471.453 251.611C472.91 249.58 473.789 251.611 474.724 253.124Z" fill="#FBBEBE"/>
<path d="M447.318 241.192L447.043 238.89C448.994 239.397 450.842 237.74 452.088 236.014C453.333 234.288 454.493 232.263 456.392 231.549C458.688 230.675 461.145 232.073 463.348 233.223C465.819 234.602 468.532 235.491 471.338 235.841C471.785 235.856 472.229 235.93 472.658 236.06C474.093 236.572 474.776 238.361 474.982 240.012C475.189 241.663 475.132 243.389 475.843 244.851C476.377 245.955 477.301 246.778 477.863 247.865C479.373 250.8 477.915 254.804 479.511 257.68L475.551 254.039C475.183 253.705 474.672 253.36 474.276 253.642C473.88 253.923 473.938 254.349 473.806 254.735C473.421 255.885 472.015 256.208 470.988 255.765C469.96 255.322 469.22 254.343 468.468 253.463C466.718 251.392 464.634 249.574 462.155 248.688C461.082 248.276 459.933 248.098 458.786 248.166C457.639 248.235 456.519 248.548 455.503 249.085C453.655 250.132 452.3 252.572 450.039 252.658C446.934 252.773 445.642 246.979 444.202 244.69C444.726 244.292 445.095 243.722 445.244 243.08C445.393 242.438 445.313 241.763 445.017 241.174C445.269 241.077 447.278 240.818 447.318 241.192Z" fill="#464353"/>
<path d="M498.824 401.108C496.382 403.291 493.211 404.475 489.939 404.428C489.107 404.428 487.953 404.589 487.948 405.423C487.962 405.671 488.046 405.91 488.189 406.113C489.225 407.839 490.86 409.121 492.78 409.715C494.559 410.256 496.465 410.163 498.325 410.071L503.748 409.789C504.77 409.732 505.797 409.68 506.819 409.554C507.84 409.427 508.942 409.214 510.01 409.059C512.625 408.684 515.269 408.559 517.907 408.685C518.608 408.714 519.417 408.685 519.853 408.156C520.289 407.626 520.054 406.671 519.893 405.906C519.572 404.33 519.893 402.679 519.595 401.096C519.072 398.318 516.691 396.195 514.062 395.188C511.623 394.256 507.295 393.191 504.982 394.739C502.503 396.408 501.011 399.123 498.824 401.108Z" fill="#3F3D56"/>
<path d="M504.196 308.13C504.678 310.432 506.876 312.158 506.945 314.459C506.997 316.323 505.665 317.911 504.712 319.493C503.802 321.15 503.034 322.883 502.417 324.671C500.605 329.312 498.361 333.771 495.713 337.989C494.439 340.009 493.016 342.207 493.308 344.583C493.509 345.691 493.897 346.758 494.456 347.735L498.273 355.335C499.111 356.853 499.766 358.466 500.224 360.139C500.551 361.583 500.586 363.079 500.798 364.552C501.401 369.212 503.582 373.907 502.296 378.423C502.181 378.814 501.78 379.286 501.475 378.998C502.732 381.357 503.771 383.739 503.651 386.414C503.599 387.818 503.169 389.291 503.691 390.591C503.986 391.097 504.181 391.656 504.265 392.236C504.265 392.616 504.087 392.979 504.047 393.387C503.943 394.463 504.925 395.36 505.952 395.688C506.98 396.016 508.087 396.005 509.12 396.315C511.112 396.891 512.524 398.617 514.228 399.813C515.955 401.013 517.994 401.679 520.094 401.729C520.392 401.761 520.692 401.701 520.955 401.557C521.105 401.426 521.226 401.264 521.309 401.082C521.393 400.901 521.436 400.704 521.437 400.504C521.529 399.551 521.385 398.59 521.019 397.706C520.652 396.822 520.075 396.042 519.336 395.435C519.016 395.23 518.75 394.95 518.562 394.618C518.465 394.324 518.439 394.01 518.487 393.703C518.797 389.521 518.722 385.319 518.263 381.15C518.056 379.83 517.989 378.492 518.062 377.157C518.177 376.047 518.51 374.942 518.384 373.832C518.257 372.722 517.701 371.72 517.368 370.65C516.794 368.752 516.943 366.715 516.88 364.725C516.777 361.273 515.99 357.89 515.204 354.53C514.9 353.212 514.556 351.826 513.62 350.848C512.828 350.019 511.548 349.22 511.847 348.115C512.01 347.706 512.256 347.336 512.57 347.028C512.94 346.564 513.212 346.029 513.369 345.456C513.526 344.884 513.564 344.285 513.482 343.697C513.818 343.786 514.174 343.754 514.489 343.607C514.804 343.46 515.057 343.206 515.204 342.891C521.408 339.963 526.425 334.094 528.634 327.582C528.758 327.102 528.952 326.642 529.208 326.218C529.782 325.413 530.781 325.068 531.665 324.619C534.443 323.221 536.365 320.592 538.127 318.02C539.155 316.524 540.176 314.982 540.618 313.228C540.86 312.093 540.975 310.936 540.963 309.776L541.118 303.781C541.149 303.393 541.11 303.004 541.003 302.63C540.857 302.272 540.638 301.949 540.36 301.681C538.677 299.884 536.465 298.675 534.047 298.229C532.417 297.936 530.752 297.993 529.105 297.855C525.908 297.59 522.751 296.601 519.555 296.831C514.527 297.199 510.056 300.691 507.685 305.15C506.853 306.744 505.981 308.13 504.196 308.13Z" fill="#464353"/>
<path d="M476.302 269.147C476.375 270.071 476.252 271 475.941 271.874C475.551 272.714 474.563 273.364 473.708 273.024C473.966 272.449 473.278 271.764 472.641 271.839C472.326 271.909 472.032 272.056 471.786 272.265C471.54 272.475 471.349 272.741 471.229 273.041C470.801 273.896 470.658 274.866 470.821 275.809C471.022 276.959 471.699 278.11 471.521 279.261C471.378 280.239 470.661 281.217 471.045 282.137C471.292 282.551 471.602 282.924 471.963 283.242C472.468 283.862 472.715 284.653 472.654 285.451C472.593 286.248 472.229 286.992 471.636 287.528L481.267 287.718C480.917 289.335 481.634 290.986 482.461 292.418C484.774 296.356 487.964 299.703 491.783 302.198C495.601 304.694 499.944 306.269 504.471 306.801C504.227 306.946 504.018 307.143 503.858 307.378C503.699 307.614 503.594 307.882 503.55 308.163C503.506 308.444 503.525 308.731 503.605 309.004C503.685 309.277 503.824 309.529 504.012 309.741C504.793 310.518 506.119 310.42 507.1 309.914C508.082 309.407 508.856 308.573 509.752 307.929C511.331 306.801 513.262 306.278 515.193 306.456C516.398 306.571 517.569 306.962 518.78 307.031C522.35 307.221 525.415 304.65 528.83 303.58C531.332 302.809 534.161 302.809 536.291 301.244C537.198 300.571 537.938 299.466 537.674 298.367C537.45 297.736 537.096 297.16 536.635 296.676C535.424 295.111 534.712 293.224 533.852 291.446C532.134 287.922 529.773 284.753 526.89 282.103C524.718 280.195 522.416 278.439 520.002 276.85C519.415 276.411 518.788 276.026 518.131 275.699C517.255 275.413 516.399 275.065 515.571 274.658C514.424 273.945 513.786 272.685 512.92 271.666C511.009 269.434 508.076 268.404 505.723 266.65C504.144 265.499 502.755 263.923 500.867 263.353C499.954 263.077 498.979 263.054 498.06 262.778C495.983 262.145 494.468 260.292 492.424 259.544C490.806 258.969 489.027 259.107 487.316 258.894C485.435 258.66 483.638 257.976 482.076 256.898C481.558 256.479 480.977 256.145 480.354 255.908C477.777 255.12 477.565 259.936 477.324 261.61C476.939 264.17 476.302 266.632 476.302 269.147Z" fill="#6C63FF"/>
<path d="M478.816 285.313C479.247 290.013 475.705 294.57 476.739 299.178C476.957 300.162 477.381 301.094 477.536 302.055C477.967 304.788 476.337 307.377 474.781 309.661L461.449 329.279C460.914 330.142 460.274 330.934 459.543 331.638C456.989 333.939 453.167 333.674 449.821 334.353C447.469 334.833 445.247 335.814 443.306 337.23C443.222 337.297 443.166 337.394 443.15 337.501C443.134 337.607 443.159 337.716 443.22 337.805C443.771 338.565 444.503 339.174 445.349 339.576C446.196 339.978 447.129 340.16 448.064 340.107C448.415 340.573 448.064 341.257 447.582 341.579C446.865 342.08 445.86 342.212 445.74 343.432C445.69 343.856 445.774 344.285 445.981 344.657C446.522 345.479 447.359 346.061 448.317 346.28C452.908 347.695 457.919 345.21 461.374 341.827C464.829 338.444 467.309 334.175 470.706 330.729C472.583 328.825 474.724 327.191 476.647 325.344C480.509 321.662 483.505 317.18 486.404 312.687C487.35 311.383 488.065 309.925 488.516 308.378C488.872 306.847 488.711 305.231 489.124 303.712C489.664 301.727 491.116 300.139 492.321 298.476C494.691 295.209 496.27 291.216 495.954 287.189C495.638 283.161 493.159 279.197 489.371 277.828C488.197 277.356 486.903 277.278 485.681 277.604C484.131 278.081 482.983 279.37 481.921 280.601L479.39 283.53C478.759 284.176 478.26 284.941 477.921 285.779C477.757 286.2 477.718 286.659 477.81 287.101C477.902 287.544 478.12 287.95 478.437 288.27" fill="#FBBEBE"/>
<path d="M544.87 213.401C543.113 213.505 541.185 213.678 539.945 214.932C539.429 215.508 539.01 216.165 538.705 216.876C537.506 219.333 536.335 221.899 536.249 224.632C536.174 226.818 536.823 228.952 537.139 231.115C537.414 232.91 536.714 234.74 536.565 236.558C538.74 235.891 541.61 234.982 543.584 233.854C544.877 233.006 546.252 232.289 547.688 231.714C549.783 231.018 553.301 232.214 555.275 233.198C555.384 231.794 554.34 229.361 554.449 227.957C554.466 227.369 554.571 226.788 554.759 226.231C555.056 225.641 555.408 225.081 555.809 224.557C556.57 223.322 556.921 221.877 556.81 220.429C556.7 218.982 556.134 217.607 555.195 216.502C553.433 214.512 550.666 213.764 548.032 213.459C546.371 213.265 544.698 213.205 543.027 213.281" fill="#6C63FF"/>
<path d="M225.542 225.75L214.223 209.296C214.223 209.296 214.011 205.223 213.271 204.273C212.53 203.324 213.11 201.207 213.11 201.207C213.11 201.207 213.908 200.056 213.219 199.935C212.53 199.815 213.11 197.237 213.11 197.237L213.058 193.112C213.058 193.112 213.695 189.142 213.167 188.193C213.011 187.936 212.933 187.638 212.942 187.337C212.952 187.036 213.048 186.744 213.219 186.496C213.219 186.496 213.85 184.223 213.219 183.619C212.588 183.015 212.743 179.494 212.898 176.687C213.053 173.879 211.79 172.297 211.79 171.877C211.79 171.457 207.612 167.326 207.612 166.952C207.612 166.578 204.966 165.048 203.376 164.651C201.786 164.254 201 163.909 201.051 163.696C201.103 163.483 198.566 162.643 198.566 162.643C198.566 162.643 196.345 162.482 195.496 161.372C194.646 160.261 192.052 159.939 191.989 159.928L191.937 159.709C191.937 159.628 191.909 159.548 191.891 159.467C192.101 159.133 192.292 158.787 192.465 158.432L192.614 158.11C193.544 158.116 194.452 157.832 195.214 157.298C195.59 156.987 195.896 156.6 196.114 156.163C196.333 155.727 196.458 155.249 196.483 154.761C196.528 153.783 196.314 152.811 195.863 151.942C195.398 150.993 194.715 150.003 194.956 148.968C195.059 148.525 195.323 148.134 195.461 147.696C195.667 146.843 195.531 145.942 195.082 145.188C194.681 144.423 194.124 143.744 193.676 143.002C193.109 142.052 192.729 141.001 192.557 139.906C192.525 139.324 192.387 138.753 192.15 138.221C191.909 137.846 191.592 137.526 191.22 137.283C189.564 136.099 187.565 135.492 185.532 135.557C184.091 135.603 182.662 135.994 181.227 135.816C180.373 135.669 179.532 135.449 178.714 135.16C176.94 134.631 174.891 134.418 173.347 135.436C171.803 136.455 171.189 138.457 170.139 140.039C169.215 141.42 167.843 142.582 167.154 144.066C167.154 144.066 167.154 144.009 167.154 143.986C166.981 144.323 166.848 144.681 166.758 145.05C166.561 146.222 166.642 147.424 166.994 148.559C167.071 149.17 167.377 149.73 167.849 150.124C168.371 150.464 169.089 150.383 169.697 150.492L169.628 150.792C169.009 153.765 169.527 156.864 171.08 159.473C172.633 162.082 175.108 164.01 178.013 164.875C178.013 164.985 178.013 165.088 178.013 165.198C178.012 165.501 177.993 165.805 177.956 166.107C177.956 166.107 172.636 165.008 171.206 165.75C169.777 166.492 166.976 167.073 166.552 167.476C166.127 167.879 165.071 167.585 164.118 170.071C163.166 172.556 163.062 175.093 161.823 176.261C160.583 177.429 159.974 178.217 159.917 179.063C159.86 179.909 160.078 180.121 159.601 180.386C159.125 180.651 158.453 181.761 158.649 182.187C158.722 182.478 158.706 182.784 158.604 183.066C158.501 183.348 158.317 183.593 158.075 183.769C157.824 183.946 157.623 184.185 157.493 184.464C157.363 184.743 157.309 185.05 157.334 185.357C157.334 185.357 157.013 186.507 156.272 186.789C155.532 187.071 155.056 188.797 155.056 188.797L152.657 191.559L147.904 186.289C147.547 185.895 147.049 185.659 146.519 185.632C145.989 185.605 145.47 185.789 145.075 186.145L142.739 188.251C141.839 188.47 141.025 188.955 140.403 189.643C139.897 190.169 139.487 190.781 139.192 191.449L137.918 192.6C137.515 193.1 137.269 193.708 137.21 194.348C137.151 194.987 137.281 195.63 137.585 196.196L140.633 199.573V199.602C139.553 199.697 138.527 200.116 137.688 200.804C133.143 204.831 133.097 208.531 133.774 210.222C134.451 211.914 140.225 218.421 140.225 218.421C140.225 218.421 143.577 222.787 148.415 225.106L148.381 225.146C148.281 225.25 148.187 225.36 148.1 225.474L148.019 225.577L147.945 225.681L147.858 225.808C147.835 225.841 147.814 225.875 147.795 225.911L147.704 226.061C147.682 226.094 147.663 226.129 147.646 226.164C147.606 226.233 147.572 226.302 147.537 226.371C147.524 226.394 147.513 226.417 147.503 226.44C147.457 226.533 147.411 226.625 147.371 226.728L147.325 226.832C147.296 226.901 147.273 226.97 147.244 227.045C147.227 227.09 147.211 227.136 147.198 227.183L147.13 227.39C147.111 227.439 147.096 227.488 147.084 227.539C147.084 227.614 147.038 227.689 147.021 227.769C147.003 227.85 146.992 227.862 146.98 227.913C146.969 227.965 146.923 228.161 146.9 228.293C146.9 228.339 146.9 228.391 146.871 228.443C146.843 228.494 146.843 228.621 146.825 228.713C146.808 228.805 146.825 228.84 146.825 228.909L146.791 229.167V229.375C146.791 229.472 146.791 229.57 146.762 229.674C146.734 229.777 146.762 229.795 146.762 229.858C146.762 230.025 146.762 230.192 146.762 230.37C146.659 236.56 147.021 237.458 147.021 237.458C147.257 238.03 147.642 238.527 148.135 238.899C148.629 239.27 149.213 239.502 149.827 239.569C150.128 239.593 150.431 239.577 150.728 239.523C153.483 239.046 159.911 237.935 162.207 238.373C163.579 238.626 166.11 238.246 167.912 237.907L168.388 237.815L168.716 238.867L169.76 238.58L170.65 239.092L171.224 239.42C172.268 242.964 176.504 241.756 176.504 241.756L177.508 242.331L187.719 242.595C188.865 243.288 190.076 243.866 191.335 244.321C191.501 244.376 191.672 244.414 191.845 244.436C192.8 244.514 193.758 244.532 194.715 244.488C195.496 244.488 196.098 244.436 196.098 244.436C196.098 244.436 195.995 241.658 195.846 238.545C199.011 238.467 202.169 238.207 205.304 237.769C210.757 236.814 213.03 231.843 213.868 229.185C214.118 230.271 214.297 231.372 214.401 232.481C214.624 233.457 214.908 234.418 215.251 235.358C215.543 236.109 215.929 236.821 216.399 237.475C220.416 236.1 217.983 234.023 217.139 233.137C216.295 232.251 217.713 231.498 217.713 231.498C217.713 231.498 218.826 230.755 218.717 230.071C218.608 229.386 218.557 228.644 222.161 228.696C225.765 228.747 225.542 225.75 225.542 225.75ZM169.685 191.973C169.731 192.272 170.259 195.534 170.684 196.391C170.811 196.957 170.852 197.539 170.805 198.117C168.675 197.945 166.454 197.853 166.454 197.853C166.517 197.931 166.556 198.024 166.569 198.123L166.23 198.048L165.748 197.933L169.674 191.944L169.685 191.973ZM161.903 204.377L165.593 204.952L165.903 204.998C165.799 205.568 165.736 206.145 165.714 206.724C165.714 206.782 165.794 206.845 165.915 206.92C165.863 207.21 165.84 207.505 165.846 207.8C165.903 208.088 167.625 208.721 169.605 209.244C169.576 209.353 169.553 209.457 169.525 209.549C167.774 208.629 165.025 208.197 164.709 207.512C164.394 206.828 155.027 203.548 155.027 203.548L154.097 203.082L156.559 203.548L157.237 203.479C158.771 203.88 160.33 204.179 161.903 204.377Z" fill="url(#paint0_linear_1_487)"/>
<path d="M213.5 228.051C213.5 228.051 212.037 236.934 204.593 238.246C197.149 239.558 172.297 239.299 172.297 239.299C172.297 239.299 158.086 237.245 152.949 225.215C147.813 213.185 144.507 208.393 148.932 208.186C153.357 207.978 177.089 216.24 178.45 216.332C179.81 216.424 214.815 198.043 213.5 228.051Z" fill="#65617D"/>
<path opacity="0.05" d="M213.5 228.051C213.5 228.051 212.037 236.934 204.593 238.246C197.149 239.558 172.297 239.299 172.297 239.299C172.297 239.299 158.086 237.245 152.949 225.215C147.813 213.185 144.507 208.393 148.932 208.186C153.357 207.978 177.089 216.24 178.45 216.332C179.81 216.424 214.815 198.043 213.5 228.051Z" fill="black"/>
<path d="M146.86 237.941C147.091 238.51 147.471 239.006 147.96 239.375C148.449 239.745 149.029 239.975 149.638 240.041C149.939 240.06 150.242 240.042 150.539 239.989C153.265 239.517 159.659 238.413 161.914 238.839C163.269 239.086 165.777 238.712 167.562 238.378C168.75 238.154 169.622 237.941 169.622 237.941C169.622 237.941 167.522 230.951 167.263 230.744C167.005 230.537 157.822 224.991 157.822 224.991L150.556 224.467C149.578 224.614 148.694 225.133 148.088 225.917C147.325 226.849 146.665 228.374 146.619 230.876C146.498 237.038 146.86 237.941 146.86 237.941Z" fill="#3F3D56"/>
<path opacity="0.05" d="M146.86 237.941C147.091 238.51 147.471 239.006 147.96 239.375C148.449 239.745 149.029 239.975 149.638 240.041C148.926 239.12 148.267 238.16 147.663 237.164L147.704 232.067C147.559 230.669 147.744 229.256 148.242 227.943C148.74 226.629 149.539 225.45 150.573 224.502C150.573 224.502 146.745 224.76 146.636 230.911C146.527 237.061 146.86 237.941 146.86 237.941Z" fill="black"/>
<path opacity="0.1" d="M178.375 226.791L185.142 221.481L195.783 210.97L192.913 210.838C192.482 211.114 191.277 211.988 191.231 213.035C191.18 214.318 188.362 213.128 186.887 213.858C185.411 214.589 178.237 223.811 176.98 223.748C175.723 223.685 174.725 223.109 174.197 224.007L174.162 224.064L178.375 226.791Z" fill="black"/>
<path opacity="0.1" d="M148.071 225.928C148.312 226.043 148.559 226.159 148.805 226.262C153.942 228.471 160.284 233.097 160.761 233.937C161.048 234.449 164.727 236.687 167.562 238.367C168.75 238.142 169.622 237.93 169.622 237.93C169.622 237.93 167.522 230.939 167.263 230.732C167.005 230.525 157.822 224.979 157.822 224.979L150.556 224.456C149.568 224.604 148.677 225.132 148.071 225.928Z" fill="black"/>
<path d="M133.814 210.867C134.491 212.546 140.208 219.013 140.208 219.013C140.208 219.013 143.824 223.742 148.966 225.917C154.109 228.092 160.445 232.752 160.916 233.592C161.22 234.133 165.318 236.606 168.199 238.304L168.848 238.683L170.277 239.518L171.034 239.949C171.034 239.949 172.791 238.539 174.541 237.118C176.292 235.697 177.985 234.305 177.985 234.242C177.985 234.179 178.719 232.297 178.559 232.194C178.398 232.09 178.117 231.411 177.451 230.566C176.748 229.628 175.834 228.871 174.782 228.356C173.261 227.573 172.048 226.298 171.338 224.738C171.338 224.738 171.109 224.571 170.764 224.346C170.051 223.855 169.253 223.498 168.411 223.293C167.263 223.15 165.105 220.785 165.105 220.785C164.266 220.237 163.566 219.501 163.062 218.633C162.488 217.483 154.378 211.879 153.627 211.361L173.336 224.053L178.054 227.091L184.82 221.786L195.461 211.275L191.949 211.114C186.783 210.89 177.6 210.539 176.452 210.803C175.512 211.02 174.543 211.084 173.583 210.993C173.583 210.993 170.965 211.108 169.232 210.193C167.499 209.279 164.773 208.847 164.457 208.168C164.141 207.489 154.866 204.233 154.866 204.233C154.866 204.233 142.24 197.508 137.723 201.5C133.206 205.493 133.131 209.175 133.814 210.867Z" fill="#65617D"/>
<path d="M174.547 172.291L176.171 177.705L178.272 189.896L185.98 190.42L188.184 186.738L190.411 183.032C190.411 183.032 191.799 178.108 192.798 173.344C193.676 169.127 194.256 165.031 193.297 164.588C192.442 164.196 191.886 162.775 191.518 161.245C191.472 161.061 191.432 160.865 191.398 160.67C191.141 159.376 190.968 158.068 190.881 156.752C190.881 156.752 174.736 155.912 176.992 162.586C177.394 163.726 177.6 164.926 177.6 166.135C177.6 166.446 177.6 166.751 177.543 167.039C177.431 168.074 177.107 169.074 176.591 169.978C176.076 170.882 175.38 171.669 174.547 172.291Z" fill="#EE8E9E"/>
<path d="M171.195 171.399L171.769 180.605L173.078 188.435L174.547 192.065L175.861 211.902C175.861 211.902 188.488 213.369 191.576 211.873C191.803 211.786 192.002 211.636 192.15 211.442C195.863 205.821 194.646 189.539 194.646 189.539L196.058 179.028L195.117 173.574L192.821 173.333L191.065 173.143C191.065 173.143 190.669 173.632 190.095 174.391C188.539 176.445 185.681 180.495 185.876 182.181C186.135 184.482 185.561 186.858 184.665 187.227C183.77 187.595 183.041 188.228 182.886 187.595C182.663 187.064 182.607 186.478 182.725 185.915C182.886 185.017 182.042 182.285 182.042 182.285C182.042 182.285 180.631 179.08 180.734 177.717C180.837 176.353 180.579 174.771 180.16 174.403C179.741 174.034 179.161 173.666 179.632 171.986C180.103 170.306 177.566 167.033 177.566 167.033L171.195 171.399Z" fill="#E3E8F4"/>
<path opacity="0.1" d="M187.891 194.366L188.419 210.078L191.444 211.764C191.671 211.673 191.869 211.522 192.018 211.327C195.731 205.706 194.514 189.424 194.514 189.424L195.932 178.913L194.985 173.459L192.689 173.218C193.573 169 194.147 164.91 193.188 164.461C192.333 164.07 191.777 162.649 191.415 161.124L189.779 172.239C189.779 172.239 189.917 173.241 189.963 174.276C190.031 174.931 189.986 175.593 189.831 176.232C189.619 177.093 189.584 177.987 189.728 178.861C188.781 180.53 188.31 183.625 188.08 186.611C187.77 190.581 187.891 194.366 187.891 194.366Z" fill="black"/>
<path d="M191.461 160.848C191.461 160.848 194.107 161.176 194.945 162.281C195.783 163.385 197.987 163.546 197.987 163.546C197.987 163.546 200.5 164.386 200.449 164.593C200.397 164.801 201.183 165.123 202.745 165.543C204.306 165.963 206.94 167.487 206.94 167.844C206.94 168.201 211.078 172.309 211.078 172.728C211.078 173.148 212.335 174.725 212.18 177.509C212.025 180.294 211.864 183.838 212.496 184.413C213.127 184.989 212.496 187.25 212.496 187.25C212.326 187.496 212.231 187.786 212.222 188.085C212.213 188.384 212.29 188.679 212.444 188.935C212.966 189.879 212.335 193.82 212.335 193.82L212.393 197.922C212.393 197.922 211.819 200.493 212.496 200.603C213.173 200.712 212.393 201.863 212.393 201.863C212.393 201.863 211.819 203.963 212.547 204.912C213.276 205.861 213.489 209.9 213.489 209.9L224.709 226.245C224.709 226.245 224.87 229.242 221.306 229.19C217.742 229.139 217.788 229.875 217.897 230.554C218.006 231.233 216.898 231.975 216.898 231.975C216.898 231.975 215.486 232.711 216.324 233.603C217.162 234.495 219.573 236.549 215.589 237.912C215.12 237.264 214.734 236.558 214.441 235.812C214.104 234.885 213.824 233.938 213.604 232.976C213.604 232.976 213.236 228.978 212.502 228.454C211.767 227.931 211.87 225.405 211.87 225.405C211.87 225.405 212.921 223.357 211.451 222.528C209.982 221.7 188.7 209.871 188.7 209.871L188.184 194.153C188.184 194.153 187.816 182.538 190.02 178.649C189.876 177.774 189.912 176.88 190.124 176.019C190.491 175.076 190.072 172.027 190.072 172.027L191.461 160.848Z" fill="#3F3D56"/>
<path opacity="0.1" d="M177.721 167.177C177.721 167.177 172.452 166.089 171.034 166.826C169.617 167.562 166.844 168.137 166.443 168.552C166.041 168.966 164.979 168.661 164.032 171.129C163.085 173.597 162.988 176.123 161.777 177.279C160.566 178.436 159.946 179.224 159.894 180.064C159.842 180.904 160.049 181.117 159.578 181.376C159.108 181.634 158.431 182.745 158.631 183.165C158.832 183.585 169.536 192.836 169.536 192.836C169.536 192.836 170.064 196.357 170.535 197.249C171.006 198.14 170.013 210.441 168.962 211.281C167.912 212.121 176.016 212.052 176.016 212.052C176.016 212.052 176.383 203.997 176.699 203.56C177.015 203.123 176.487 194.522 176.487 194.522C176.487 194.522 176.435 187.163 177.118 185.219C177.801 183.274 177.692 176.808 177.692 176.808C177.692 176.808 178.295 172.93 179.029 172.027C179.764 171.123 177.721 167.177 177.721 167.177Z" fill="black"/>
<path d="M177.566 167.021C177.566 167.021 172.297 165.934 170.879 166.665C169.462 167.395 166.684 167.982 166.288 168.391C165.892 168.799 164.818 168.494 163.877 170.968C162.936 173.442 162.827 175.956 161.622 177.112C160.416 178.269 159.785 179.057 159.733 179.897C159.682 180.737 159.894 180.95 159.418 181.215C158.941 181.479 158.27 182.578 158.476 182.998C158.683 183.418 169.381 192.669 169.381 192.669C169.381 192.669 169.904 196.19 170.38 197.082C170.856 197.974 169.852 210.274 168.802 211.114C167.751 211.954 175.884 211.879 175.884 211.879C175.884 211.879 176.251 203.825 176.561 203.393C176.871 202.962 176.355 194.349 176.355 194.349C176.355 194.349 176.303 186.997 176.986 185.052C177.669 183.107 177.589 176.641 177.589 176.641C177.589 176.641 178.191 172.763 178.926 171.86C179.661 170.957 177.566 167.021 177.566 167.021Z" fill="#3F3D56"/>
<path opacity="0.1" d="M177.015 162.574C177.417 163.714 177.623 164.915 177.623 166.124C180.198 166.88 182.952 166.753 185.447 165.763C187.942 164.773 190.036 162.976 191.398 160.658C191.141 159.365 190.968 158.056 190.881 156.74C190.881 156.74 174.759 155.895 177.015 162.574Z" fill="black"/>
<path d="M169.043 154.266C169.041 157.351 170.22 160.319 172.336 162.558C174.453 164.796 177.346 166.136 180.419 166.299C183.492 166.462 186.51 165.438 188.851 163.436C191.192 161.434 192.678 158.608 193.001 155.541C193.325 152.473 192.462 149.398 190.59 146.95C188.718 144.502 185.981 142.867 182.942 142.382C179.903 141.898 176.794 142.601 174.257 144.347C171.72 146.092 169.948 148.747 169.307 151.764C169.131 152.586 169.042 153.425 169.043 154.266Z" fill="#EE8E9E"/>
<path d="M161.335 182.135L158.465 183.027C158.538 183.317 158.523 183.622 158.42 183.904C158.318 184.185 158.134 184.429 157.891 184.603C157.641 184.778 157.442 185.016 157.314 185.293C157.186 185.57 157.134 185.876 157.162 186.179C157.162 186.179 156.846 187.33 156.112 187.601C155.377 187.871 154.906 189.597 154.906 189.597L152.496 192.381C152.496 192.381 151.601 193.118 151.761 193.486C151.922 193.854 150.814 193.958 150.814 193.958L151.388 203.313L156.37 204.262L159.464 203.945L161.977 203.002L164.181 201.684L165.174 199.113L169.582 192.381L161.335 182.135Z" fill="#3F3D56"/>
<path d="M151.532 194.677C151.532 194.677 145.138 185.432 140.363 190.42C135.588 195.408 142.303 203.508 143.875 203.244C145.448 202.979 152.949 202.559 152.949 202.559L151.532 194.677Z" fill="#EE8E9E"/>
<path d="M166.594 190.679L138.35 176.229C137.916 176.006 137.383 176.179 137.161 176.615L126.148 198.245C125.926 198.681 126.099 199.214 126.533 199.437L154.777 213.887C155.212 214.11 155.745 213.937 155.966 213.501L166.98 191.871C167.202 191.435 167.029 190.902 166.594 190.679Z" fill="#3F3D56"/>
<path d="M163.967 191.964L138.903 179.14L129.262 198.075L154.326 210.898L163.967 191.964Z" fill="#6C63FF"/>
<path d="M133.12 188.567C133.373 188.567 133.579 188.361 133.579 188.107C133.579 187.853 133.373 187.647 133.12 187.647C132.866 187.647 132.661 187.853 132.661 188.107C132.661 188.361 132.866 188.567 133.12 188.567Z" fill="#E6E8EC"/>
<path d="M160.25 202.806C160.671 202.806 161.013 202.464 161.013 202.041C161.013 201.619 160.671 201.276 160.25 201.276C159.828 201.276 159.487 201.619 159.487 202.041C159.487 202.464 159.828 202.806 160.25 202.806Z" fill="#E6E8EC"/>
<path d="M147.394 196.622C147.336 203.56 161.65 205.033 161.65 205.033L165.306 205.608L166.948 205.867L167.631 199.09C167.631 199.09 166.879 198.975 165.943 198.756C164.554 198.434 162.758 197.876 162.385 197.088C161.782 195.782 147.434 189.683 147.394 196.622Z" fill="#EE8E9E"/>
<path opacity="0.1" d="M169.307 151.764C169.636 151.788 169.946 151.927 170.185 152.155C170.587 152.587 170.61 153.352 171.138 153.616C171.335 153.7 171.552 153.724 171.763 153.685C173.158 153.49 173.961 151.913 175.304 151.476C176.085 151.275 176.911 151.346 177.646 151.678C177.945 151.775 178.214 151.947 178.427 152.178C178.874 152.753 178.559 153.616 178.765 154.318C179.052 155.296 180.217 155.682 181.222 155.808C182.226 155.935 183.363 156.01 184.034 156.769C184.256 157.054 184.416 157.383 184.502 157.734C184.588 158.085 184.599 158.45 184.533 158.806C184.473 159.053 184.473 159.312 184.533 159.559C184.809 160.348 186.169 160.227 186.525 159.605C186.789 159.151 186.709 158.777 187.323 158.65C187.761 158.615 188.202 158.693 188.603 158.875C189.671 159.242 190.796 159.416 191.926 159.387C192.644 157.851 193.03 156.181 193.06 154.485C193.089 152.789 192.76 151.106 192.095 149.546C191.43 147.987 190.443 146.586 189.2 145.435C187.957 144.284 186.486 143.41 184.882 142.869C183.278 142.329 181.578 142.134 179.894 142.298C178.21 142.462 176.58 142.981 175.109 143.821C173.639 144.66 172.363 145.802 171.364 147.171C170.365 148.54 169.666 150.105 169.312 151.764H169.307Z" fill="black"/>
<path d="M184.528 159.243C184.468 158.995 184.468 158.737 184.528 158.489C184.593 158.135 184.583 157.77 184.496 157.42C184.41 157.07 184.251 156.742 184.028 156.458C183.357 155.693 182.226 155.624 181.216 155.492C180.206 155.36 179.046 154.98 178.76 154.002C178.553 153.3 178.869 152.443 178.421 151.867C178.211 151.632 177.941 151.459 177.64 151.367C176.906 151.034 176.08 150.961 175.299 151.16C173.956 151.597 173.152 153.173 171.757 153.369C171.547 153.41 171.329 153.386 171.132 153.3C170.604 153.035 170.558 152.27 170.179 151.839C169.542 151.165 168.331 151.603 167.556 151.102C167.086 150.709 166.783 150.152 166.707 149.543C166.36 148.415 166.281 147.221 166.477 146.057C166.931 144.106 168.675 142.766 169.783 141.092C170.822 139.538 171.407 137.571 172.963 136.541C174.518 135.511 176.521 135.741 178.283 136.265C179.093 136.554 179.927 136.774 180.774 136.921C182.192 137.093 183.615 136.708 185.038 136.662C187.056 136.596 189.038 137.203 190.675 138.388C191.044 138.629 191.357 138.947 191.593 139.32C191.83 139.848 191.969 140.415 192.006 140.994C192.174 142.08 192.55 143.123 193.114 144.066C193.55 144.808 194.107 145.476 194.503 146.241C194.945 146.991 195.081 147.884 194.882 148.732C194.744 149.163 194.48 149.555 194.376 149.998C194.147 151.022 194.818 152.005 195.278 152.949C195.724 153.813 195.936 154.779 195.892 155.751C195.867 156.235 195.743 156.709 195.527 157.143C195.31 157.576 195.007 157.96 194.635 158.271C193.855 158.813 192.926 159.096 191.977 159.082C190.827 159.117 189.68 158.944 188.591 158.57C188.189 158.391 187.75 158.313 187.311 158.345C186.697 158.472 186.777 158.846 186.513 159.301C186.163 159.91 184.809 160.031 184.528 159.243Z" fill="#3F3D56"/>
<path opacity="0.1" d="M178.059 227.102L184.826 221.798L195.467 211.287L191.954 211.125C191.542 211.499 191.279 212.01 191.214 212.564C191.162 213.847 188.344 212.65 186.869 213.386C185.394 214.123 178.22 223.339 176.963 223.276C175.706 223.213 174.707 222.638 174.179 223.529L174.145 223.587C173.936 223.829 173.654 223.996 173.342 224.064L178.059 227.102Z" fill="black"/>
<path d="M164.428 226.734L167.826 237.613L168.36 239.339L169.978 238.896L173.548 237.912L189.435 233.54C191.436 233.453 193.394 232.931 195.174 232.01C198.178 230.323 201.615 229.572 205.046 229.852C207.147 230.048 209.483 229.139 211.423 225.549C211.423 225.549 215.825 212.518 204.713 208.784C193.602 205.05 193.068 210.769 193.068 210.769L192.913 210.861C192.482 211.137 191.277 212.011 191.231 213.058C191.18 214.341 188.362 213.151 186.887 213.881C185.412 214.612 178.237 223.834 176.98 223.771C175.723 223.708 174.725 223.132 174.197 224.03L174.162 224.087C173.772 224.622 172.607 224.749 171.832 224.766C171.591 224.779 171.35 224.779 171.109 224.766L171.006 224.795L170.202 225.037L164.428 226.734Z" fill="#65617D"/>
<path opacity="0.1" d="M165.306 205.614L166.948 205.873L167.631 199.095C167.631 199.095 166.879 198.98 165.943 198.762C166.19 199.711 165.628 203.364 165.306 205.614Z" fill="black"/>
<path opacity="0.1" d="M208.18 173.937C208.18 173.937 213.053 172.516 211.847 186.392C211.01 194.862 207.419 202.821 201.625 209.043C201.625 209.043 191.243 213.611 186.577 212.874C181.91 212.138 178.507 211.983 178.507 211.983C177.037 211.239 175.428 210.809 173.783 210.723C171.166 210.619 165.662 208.997 165.553 208.462C165.444 207.927 166.919 200.212 166.288 199.636C166.288 199.636 173.628 199.935 174.363 200.465C175.098 200.994 176.148 200.62 176.934 200.465C177.721 200.309 180.131 198.215 184.901 200.056C184.901 200.056 186.525 200.212 187.156 199.792C187.671 199.551 188.257 199.514 188.798 199.688C189.206 199.552 189.592 199.358 189.946 199.113C190.101 198.906 191.363 199.113 191.363 199.113C191.438 199.146 191.52 199.163 191.602 199.163C191.685 199.162 191.766 199.144 191.84 199.109C191.915 199.074 191.981 199.023 192.034 198.96C192.088 198.898 192.127 198.824 192.15 198.745C192.316 198.316 192.565 197.925 192.884 197.594C192.884 197.594 194.296 189.608 196.971 186.611C197.184 186.424 197.348 186.187 197.448 185.921C197.549 185.655 197.582 185.368 197.545 185.086C197.327 184.235 201.889 172.251 208.18 173.937Z" fill="black"/>
<path d="M208.048 172.867C208.048 172.867 212.926 171.451 211.721 185.322C210.886 193.792 207.294 201.752 201.499 207.973C201.499 207.973 191.116 212.546 186.45 211.81C181.784 211.074 178.375 210.901 178.375 210.901C176.907 210.156 175.3 209.727 173.657 209.641C171.034 209.532 165.53 207.915 165.427 207.38C165.324 206.845 166.787 199.13 166.161 198.549C166.161 198.549 173.502 198.854 174.237 199.383C174.972 199.912 176.016 199.533 176.802 199.383C177.589 199.234 179.999 197.134 184.774 198.969C184.774 198.969 186.399 199.13 187.024 198.71C187.539 198.472 188.124 198.433 188.666 198.601C189.072 198.462 189.459 198.268 189.814 198.025C189.969 197.812 191.226 198.025 191.226 198.025C191.301 198.059 191.382 198.076 191.464 198.075C191.547 198.075 191.628 198.056 191.703 198.021C191.777 197.986 191.843 197.936 191.897 197.873C191.95 197.81 191.989 197.737 192.012 197.657C192.178 197.228 192.428 196.837 192.746 196.507C192.746 196.507 194.164 188.521 196.839 185.524C197.052 185.337 197.216 185.1 197.316 184.834C197.417 184.568 197.45 184.281 197.413 183.999C197.2 183.171 201.757 171.204 208.048 172.867Z" fill="#3F3D56"/>
<path opacity="0.1" d="M170.185 225.008L177.107 233.408L177.152 233.362C177.204 233.2 177.887 231.417 177.726 231.308C177.566 231.198 176.366 228.575 173.956 227.47C172.729 226.871 171.7 225.933 170.988 224.766L170.185 225.008Z" fill="black"/>
<path opacity="0.1" d="M170.277 239.546L171.034 239.978C171.034 239.978 172.791 238.568 174.541 237.147C176.292 235.726 177.985 234.334 177.985 234.271C177.985 234.207 178.719 232.326 178.559 232.222C178.398 232.119 178.117 231.44 177.451 230.594C172.756 229.277 175.729 232.545 176.142 232.694C176.142 232.694 170.432 231.377 170.116 237.619C170.089 238.266 170.143 238.913 170.277 239.546Z" fill="black"/>
<path d="M176.068 242.187L177.066 242.762L187.185 243.021C188.319 243.713 189.519 244.291 190.766 244.747C190.932 244.797 191.101 244.833 191.271 244.856C192.211 244.933 193.154 244.951 194.095 244.908C194.87 244.908 195.467 244.856 195.467 244.856C195.467 244.856 194.991 232.067 194.629 230.721C194.457 230.076 193.607 230.215 192.769 230.537C192.141 230.794 191.535 231.102 190.956 231.457C190.956 231.457 186.663 231.877 185.98 232.245C185.297 232.614 183.357 232.033 182.152 232.245C180.946 232.458 178.794 230.824 178.794 230.824C172.923 228.88 176.228 232.504 176.647 232.665C176.647 232.665 170.908 231.348 170.615 237.59C170.323 243.832 176.068 242.187 176.068 242.187Z" fill="#3F3D56"/>
<path d="M190.698 237.251C190.807 239.897 192.867 243.182 194.095 244.92C194.87 244.92 195.467 244.868 195.467 244.868C195.467 244.868 194.991 232.079 194.629 230.732C194.457 230.088 193.607 230.226 192.769 230.548C191.754 232.458 190.606 235.111 190.698 237.251Z" fill="#565387"/>
<path opacity="0.1" d="M190.698 237.251C190.807 239.897 192.867 243.182 194.095 244.92C194.87 244.92 195.467 244.868 195.467 244.868C195.467 244.868 194.991 232.079 194.629 230.732C194.457 230.088 193.607 230.226 192.769 230.548C191.754 232.458 190.606 235.111 190.698 237.251Z" fill="black"/>
<path opacity="0.05" d="M188.964 237.602C189.664 240.156 189.653 243.021 190.766 244.759C190.932 244.808 191.101 244.845 191.271 244.868C192.211 244.945 193.154 244.962 194.095 244.92C194.87 244.92 195.467 244.868 195.467 244.868C195.467 244.868 194.991 232.079 194.629 230.732C194.457 230.088 193.607 230.226 192.769 230.548C192.141 230.806 191.535 231.114 190.956 231.469C190.956 231.469 188.075 234.328 188.964 237.602Z" fill="black"/>
<path opacity="0.1" d="M154.057 211.672C154.057 211.672 159.085 213.306 163.343 219.117L154.057 211.672Z" fill="black"/>
<g opacity="0.1">
<path d="M194.899 148.605C194.899 148.646 194.899 148.68 194.87 148.721C194.822 148.871 194.762 149.017 194.692 149.158C194.748 148.969 194.817 148.784 194.899 148.605Z" fill="black"/>
<path d="M166.466 146.057C166.551 145.689 166.682 145.333 166.856 144.998C166.856 145.084 166.799 145.176 166.776 145.268C166.584 146.433 166.665 147.627 167.011 148.755C167.087 149.362 167.388 149.919 167.855 150.314C168.635 150.815 169.846 150.377 170.483 151.05C170.885 151.482 170.908 152.247 171.436 152.512C171.633 152.598 171.851 152.622 172.062 152.581C173.456 152.385 174.26 150.809 175.603 150.372C176.384 150.17 177.211 150.243 177.945 150.579C178.245 150.671 178.515 150.844 178.725 151.079C179.173 151.655 178.857 152.512 179.064 153.214C179.351 154.192 180.516 154.577 181.52 154.704C182.525 154.83 183.661 154.905 184.333 155.67C184.555 155.954 184.715 156.282 184.801 156.632C184.887 156.982 184.897 157.347 184.832 157.701C184.772 157.949 184.772 158.207 184.832 158.455C185.107 159.243 186.468 159.122 186.823 158.501C187.087 158.046 187.007 157.672 187.621 157.546C188.06 157.514 188.499 157.591 188.901 157.77C189.99 158.144 191.137 158.317 192.287 158.282C193.236 158.297 194.165 158.013 194.945 157.471C195.285 157.203 195.564 156.863 195.76 156.476C195.582 157.18 195.179 157.807 194.612 158.259C193.832 158.801 192.903 159.085 191.954 159.07C190.804 159.106 189.657 158.932 188.568 158.558C188.167 158.379 187.727 158.302 187.288 158.334C186.674 158.461 186.755 158.835 186.496 159.289C186.135 159.91 184.774 160.031 184.499 159.243C184.442 158.995 184.442 158.737 184.499 158.489C184.564 158.135 184.554 157.77 184.468 157.42C184.382 157.07 184.222 156.742 184 156.458C183.328 155.693 182.197 155.624 181.187 155.492C180.177 155.36 179.018 154.98 178.731 154.002C178.524 153.3 178.84 152.443 178.392 151.867C178.184 151.633 177.916 151.46 177.617 151.367C176.881 151.034 176.053 150.961 175.27 151.16C173.933 151.597 173.123 153.173 171.729 153.369C171.518 153.41 171.3 153.386 171.103 153.3C170.575 153.035 170.529 152.27 170.15 151.839C169.513 151.166 168.308 151.603 167.527 151.102C167.058 150.709 166.754 150.152 166.678 149.543C166.337 148.414 166.264 147.219 166.466 146.057Z" fill="black"/>
</g>
<path opacity="0.1" d="M195.714 188.124C194.75 189.424 193.653 190.627 192.804 191.996C191.881 193.346 191.433 194.965 191.53 196.599C192.408 195.695 192.815 194.441 193.366 193.308C194.308 191.386 195.708 189.758 196.896 187.998C197.12 187.658 198.566 185.696 197.837 185.616C197.229 185.529 196.041 187.681 195.714 188.124Z" fill="black"/>
<path d="M200.879 311.226C201.574 313.458 202.274 315.696 203.141 317.865C204.702 321.635 206.667 325.225 209.001 328.571C210.505 330.774 212.122 332.898 213.845 334.934C216.003 337.483 218.436 340.049 219.171 343.305C219.613 345.187 219.463 347.149 219.647 349.059C219.831 350.969 220.456 353.017 222.012 354.167C223.119 354.99 224.537 355.238 225.897 355.45C226.873 355.606 228.09 355.658 228.595 354.812C228.772 354.466 228.864 354.084 228.865 353.696L229.1 350.882C229.146 350.273 229.364 349.496 229.972 349.467C230.581 349.438 230.885 350.249 231.401 350.618C232.09 351.101 233.123 350.618 233.502 349.887C233.817 349.096 233.837 348.218 233.559 347.413C233.142 345.812 232.39 344.317 231.354 343.028C230.318 341.739 229.022 340.685 227.55 339.934C226.528 339.521 225.548 339.01 224.623 338.409C223.684 337.591 222.905 336.603 222.327 335.498C217.001 326.707 211.646 317.87 207.887 308.303C207.146 306.593 206.646 304.789 206.401 302.941C206.217 301.06 206.51 299.167 206.63 297.28C206.853 293.89 206.539 290.486 205.7 287.194C205.517 286.33 205.193 285.502 204.742 284.743C203.192 282.39 199.576 282.039 197.281 283.662C196.435 284.314 195.734 285.135 195.223 286.073C194.711 287.011 194.399 288.045 194.308 289.11C194.141 291.02 195.237 292.999 195.794 294.777C197.482 300.266 199.177 305.748 200.879 311.226Z" fill="#A1616A"/>
<path opacity="0.05" d="M200.879 311.226C201.574 313.458 202.274 315.696 203.141 317.865C204.702 321.635 206.667 325.225 209.001 328.571C210.505 330.774 212.122 332.898 213.845 334.934C216.003 337.483 218.436 340.049 219.171 343.305C219.613 345.187 219.463 347.149 219.647 349.059C219.831 350.969 220.456 353.017 222.012 354.167C223.119 354.99 224.537 355.238 225.897 355.45C226.873 355.606 228.09 355.658 228.595 354.812C228.772 354.466 228.864 354.084 228.865 353.696L229.1 350.882C229.146 350.273 229.364 349.496 229.972 349.467C230.581 349.438 230.885 350.249 231.401 350.618C232.09 351.101 233.123 350.618 233.502 349.887C233.817 349.096 233.837 348.218 233.559 347.413C233.142 345.812 232.39 344.317 231.354 343.028C230.318 341.739 229.022 340.685 227.55 339.934C226.528 339.521 225.548 339.01 224.623 338.409C223.684 337.591 222.905 336.603 222.327 335.498C217.001 326.707 211.646 317.87 207.887 308.303C207.146 306.593 206.646 304.789 206.401 302.941C206.217 301.06 206.51 299.167 206.63 297.28C206.853 293.89 206.539 290.486 205.7 287.194C205.517 286.33 205.193 285.502 204.742 284.743C203.192 282.39 199.576 282.039 197.281 283.662C196.435 284.314 195.734 285.135 195.223 286.073C194.711 287.011 194.399 288.045 194.308 289.11C194.141 291.02 195.237 292.999 195.794 294.777C197.482 300.266 199.177 305.748 200.879 311.226Z" fill="black"/>
<path d="M167.418 405.221C168.457 405.583 169.561 405.717 170.655 405.613C170.736 404.715 171.941 404.514 172.836 404.56C173.269 404.545 173.699 404.645 174.082 404.847C174.306 404.991 174.478 405.198 174.696 405.348C175.085 405.562 175.521 405.674 175.964 405.676L180.625 406.067C182.702 406.245 184.866 406.407 186.812 405.664C187.2 405.541 187.544 405.31 187.805 404.997C188.333 404.238 187.805 403.15 187.076 402.598C186.347 402.046 185.406 401.798 184.671 401.234C183.053 399.998 182.829 397.685 181.974 395.832C181.366 394.664 180.616 393.576 179.741 392.593C179.107 391.749 178.368 390.989 177.543 390.332C175.672 388.98 173.525 389.009 171.327 388.813C169.777 388.675 168.32 388.583 167.206 389.964C165.829 391.69 166.38 395.142 166.466 397.155C166.573 399.865 166.892 402.562 167.418 405.221Z" fill="#514E7F"/>
<path opacity="0.05" d="M167.418 405.221C168.457 405.583 169.561 405.717 170.655 405.613C170.736 404.715 171.941 404.514 172.836 404.56C173.269 404.545 173.699 404.645 174.082 404.847C174.306 404.991 174.478 405.198 174.696 405.348C175.085 405.562 175.521 405.674 175.964 405.676L180.625 406.067C182.702 406.245 184.866 406.407 186.812 405.664C187.2 405.541 187.544 405.31 187.805 404.997C188.333 404.238 187.805 403.15 187.076 402.598C186.347 402.046 185.406 401.798 184.671 401.234C183.053 399.998 182.829 397.685 181.974 395.832C181.366 394.664 180.616 393.576 179.741 392.593C179.107 391.749 178.368 390.989 177.543 390.332C175.672 388.98 173.525 389.009 171.327 388.813C169.777 388.675 168.32 388.583 167.206 389.964C165.829 391.69 166.38 395.142 166.466 397.155C166.573 399.865 166.892 402.562 167.418 405.221Z" fill="black"/>
<path d="M169.301 314.349C167.878 314.81 167.258 316.587 167.522 318.066C167.786 319.545 168.67 320.822 169.399 322.134C171.476 325.856 172.372 330.113 174.116 333.997C175.419 336.873 177.181 339.577 178.467 342.488C179.752 345.399 180.55 348.685 179.77 351.774C179.391 353.276 178.656 354.651 178.168 356.129C177.685 357.732 177.37 359.38 177.227 361.048C176.595 366.714 176.482 372.426 176.888 378.112C176.892 378.805 177.037 379.491 177.313 380.126C177.606 380.701 178.111 381.277 177.887 381.852C177.79 382.088 177.577 382.26 177.474 382.49C177.175 383.135 177.772 383.819 178.318 384.28C178.22 384.453 178.089 384.604 177.933 384.726C177.776 384.847 177.597 384.936 177.405 384.987C177.796 385.237 178.097 385.606 178.262 386.04C178.427 386.475 178.449 386.951 178.323 387.398C177.841 387.473 177.813 388.215 178.117 388.606C178.421 388.997 178.903 389.239 179.121 389.682C179.25 390.043 179.235 390.439 179.082 390.79C178.928 391.141 178.647 391.42 178.295 391.569C177.578 391.846 176.795 391.906 176.045 391.742C174.772 391.564 173.515 391.287 172.285 390.913C171.643 390.787 171.067 390.432 170.664 389.914C170.261 389.396 170.059 388.75 170.093 388.094C169.809 385.752 169.722 383.391 169.835 381.035C170.036 369.62 169.835 358.195 169.341 346.786C169.14 342.183 167.763 337.725 165.989 333.49C165.009 331.326 163.919 329.214 162.724 327.162C160.164 322.467 157.902 317.266 158.488 311.945C158.551 311.369 158.758 310.685 159.326 310.593C159.548 310.569 159.772 310.606 159.974 310.702C161.153 311.254 162.294 311.884 163.389 312.589C165.189 313.647 167.217 314.251 169.301 314.349Z" fill="#464353"/>
<path opacity="0.05" d="M169.301 314.349C167.878 314.81 167.258 316.587 167.522 318.066C167.786 319.545 168.67 320.822 169.399 322.134C171.476 325.856 172.372 330.113 174.116 333.997C175.419 336.873 177.181 339.577 178.467 342.488C179.752 345.399 180.55 348.685 179.77 351.774C179.391 353.276 178.656 354.651 178.168 356.129C177.685 357.732 177.37 359.38 177.227 361.048C176.595 366.714 176.482 372.426 176.888 378.112C176.892 378.805 177.037 379.491 177.313 380.126C177.606 380.701 178.111 381.277 177.887 381.852C177.79 382.088 177.577 382.26 177.474 382.49C177.175 383.135 177.772 383.819 178.318 384.28C178.22 384.453 178.089 384.604 177.933 384.726C177.776 384.847 177.597 384.936 177.405 384.987C177.796 385.237 178.097 385.606 178.262 386.04C178.427 386.475 178.449 386.951 178.323 387.398C177.841 387.473 177.813 388.215 178.117 388.606C178.421 388.997 178.903 389.239 179.121 389.682C179.25 390.043 179.235 390.439 179.082 390.79C178.928 391.141 178.647 391.42 178.295 391.569C177.578 391.846 176.795 391.906 176.045 391.742C174.772 391.564 173.515 391.287 172.285 390.913C171.643 390.787 171.067 390.432 170.664 389.914C170.261 389.396 170.059 388.75 170.093 388.094C169.809 385.752 169.722 383.391 169.835 381.035C170.036 369.62 169.835 358.195 169.341 346.786C169.14 342.183 167.763 337.725 165.989 333.49C165.009 331.326 163.919 329.214 162.724 327.162C160.164 322.467 157.902 317.266 158.488 311.945C158.551 311.369 158.758 310.685 159.326 310.593C159.548 310.569 159.772 310.606 159.974 310.702C161.153 311.254 162.294 311.884 163.389 312.589C165.189 313.647 167.217 314.251 169.301 314.349Z" fill="black"/>
<path d="M150.057 300.473C149.315 299.995 148.459 299.725 147.577 299.69C146.556 299.742 145.683 300.415 144.885 301.06C143.94 301.787 143.043 302.575 142.199 303.418C140.453 305.285 139.236 307.586 138.675 310.082C138.113 312.579 138.229 315.18 139.008 317.617C139.852 320.154 141.396 322.392 142.923 324.584L146.022 329.049C150.751 335.855 155.48 342.661 160.434 349.306C160.435 349.469 160.487 349.628 160.584 349.759C160.681 349.891 160.817 349.988 160.973 350.037C161.151 350.083 161.375 350.077 161.484 350.226C161.534 350.32 161.556 350.426 161.547 350.531C161.536 351.023 161.443 351.509 161.271 351.97C161.191 352.122 161.171 352.298 161.214 352.464C161.375 352.838 162.052 352.626 162.27 352.977C162.414 353.207 162.236 353.506 162.046 353.701C161.857 353.897 161.622 354.116 161.656 354.386C161.69 354.656 162.161 354.961 162.144 355.295C162.144 355.491 161.972 355.64 161.851 355.796C161.682 356.043 161.606 356.342 161.634 356.641C161.662 356.939 161.794 357.218 162.006 357.43C162.333 360.674 160.571 363.758 160.221 366.991C159.647 372.1 161.972 377.088 162.253 382.214C162.236 382.791 162.346 383.365 162.574 383.894C163.051 384.78 164.296 385.315 164.233 386.322C164.143 386.736 164.026 387.143 163.883 387.542C163.785 388.117 164.061 388.692 164.072 389.268C164.084 389.843 163.573 390.551 163.034 390.321C163.439 391.678 163.801 393.048 164.118 394.428L174.966 395.326C175.083 394.349 175.05 393.359 174.868 392.392C174.644 391.339 174.174 390.361 173.927 389.32C173.766 388.807 173.721 388.265 173.795 387.733C173.868 387.201 174.058 386.691 174.352 386.242C174.069 386.245 173.794 386.148 173.576 385.968C173.357 385.788 173.209 385.536 173.158 385.258C173.067 384.697 173.077 384.124 173.187 383.566C173.474 380.73 172.285 377.934 172.32 375.086C172.354 372.842 173.141 370.685 173.537 368.481C174.386 363.764 173.502 358.649 175.597 354.34C176.866 351.745 178.622 348.869 177.198 346.355C176.498 345.112 175.258 344.26 174.449 343.087C173.79 341.978 173.295 340.778 172.98 339.526C171.31 334.348 168.606 329.538 166.236 324.613C165.578 323.379 165.09 322.061 164.784 320.695C164.617 319.497 164.555 318.286 164.6 317.077C164.6 314.905 164.468 312.736 164.204 310.581C164.151 309.637 163.882 308.718 163.418 307.894C162.95 307.271 162.365 306.746 161.696 306.347C158.138 303.902 153.902 302.504 150.057 300.473Z" fill="#464353"/>
<path d="M163.056 409.208C164.098 409.565 165.203 409.697 166.299 409.594C166.38 408.696 167.579 408.495 168.474 408.541C168.908 408.527 169.337 408.626 169.72 408.829C169.944 408.972 170.116 409.185 170.34 409.329C170.728 409.545 171.164 409.658 171.608 409.657L176.263 410.048C178.346 410.227 180.504 410.394 182.456 409.646C182.843 409.524 183.186 409.292 183.443 408.978C183.971 408.219 183.443 407.137 182.714 406.585C181.985 406.033 181.044 405.779 180.315 405.216C178.691 403.979 178.473 401.672 177.612 399.819C177.009 398.647 176.261 397.557 175.385 396.574C174.749 395.732 174.008 394.974 173.181 394.319C171.315 392.961 169.163 392.99 166.971 392.794C165.415 392.656 163.958 392.57 162.85 393.945C161.472 395.671 162.023 399.123 162.104 401.142C162.212 403.852 162.53 406.549 163.056 409.208Z" fill="#514E7F"/>
<path d="M211.136 281.642C217.069 281.642 221.88 276.821 221.88 270.872C221.88 264.924 217.069 260.102 211.136 260.102C205.202 260.102 200.391 264.924 200.391 270.872C200.391 276.821 205.202 281.642 211.136 281.642Z" fill="#A1616A"/>
<path d="M201 274.071C199.462 275.4 197.252 275.498 195.232 275.705C190.912 276.15 186.707 277.37 182.817 279.307C182.279 279.539 181.791 279.875 181.382 280.296C181.033 280.753 180.785 281.278 180.654 281.838C180.284 283.05 180.146 284.32 180.246 285.583C180.387 286.808 180.738 288 181.285 289.104C182.776 292.199 185.077 294.829 187.943 296.716C188.448 297.093 189.021 297.368 189.63 297.527C191.042 297.821 192.408 297.004 193.803 296.635C195.071 296.304 196.408 296.346 197.654 296.756C198.802 297.147 200.058 297.861 201.195 297.383C201.922 296.976 202.488 296.33 202.796 295.554C203.894 293.475 204.873 291.335 205.729 289.145C206.037 288.29 206.391 287.452 206.791 286.636C208.036 284.26 210.189 282.425 211.262 279.957C211.371 279.769 211.437 279.558 211.454 279.341C211.472 279.124 211.442 278.906 211.365 278.703C211.166 278.427 210.891 278.217 210.573 278.099C208.986 277.188 207.54 276.05 206.28 274.721C205.574 274.043 204.277 272.207 203.261 272.046C202.119 271.851 201.775 273.404 201 274.071Z" fill="#A1616A"/>
<path d="M201.252 295.956C200.007 296.532 198.538 296.284 197.189 296.002C193.711 295.272 190.192 294.535 186.973 293.028C185.967 292.642 185.095 291.97 184.464 291.095C184.073 290.346 183.835 289.527 183.764 288.684L183.19 284.657C182.984 283.259 183.34 281.965 183.374 280.549C183.396 280.393 183.386 280.233 183.346 280.08C183.306 279.927 183.235 279.783 183.139 279.658C182.942 279.492 182.688 279.412 182.433 279.433C180.82 279.462 179.844 281.159 178.714 282.31C178.06 282.974 177.279 283.499 176.418 283.852C175.385 284.277 174.122 284.577 173.692 285.612C173.519 286.044 173.542 286.533 173.359 286.964C172.636 288.69 169.553 288.115 168.767 289.841C168.543 290.324 168.561 290.928 168.193 291.308C167.826 291.688 167.137 291.682 166.569 291.774C164.325 292.142 163.24 294.737 161.323 295.962C159.71 296.998 157.633 296.975 155.894 297.78C154.929 298.229 154.074 298.931 153.053 299.224C152.031 299.518 150.877 299.362 149.781 299.391C149.664 299.38 149.546 299.393 149.435 299.43C149.323 299.467 149.22 299.526 149.133 299.604C149.065 299.708 149.02 299.826 149.001 299.949C148.982 300.072 148.99 300.198 149.024 300.317C149.555 303.719 150.961 306.924 153.104 309.615C155.247 312.307 158.052 314.392 161.243 315.667C161.613 315.785 161.965 315.956 162.287 316.173C163.263 316.904 163.435 318.475 164.543 318.992C164.943 319.133 165.374 319.161 165.788 319.071C166.202 318.982 166.584 318.779 166.89 318.486C167.502 317.896 168.076 317.27 168.612 316.61C169.624 315.552 170.951 314.851 172.394 314.614C173.726 314.401 175.213 314.557 176.292 313.734C176.733 313.328 177.143 312.889 177.52 312.422C178.319 311.675 179.268 311.106 180.303 310.754C183.132 309.633 186.122 308.975 189.159 308.803C191.989 308.648 194.899 308.907 197.573 307.986C198.268 307.771 198.908 307.408 199.45 306.922C200.025 306.299 200.453 305.553 200.701 304.742C201.666 301.915 201.856 298.882 201.252 295.956Z" fill="#6C63FF"/>
<path d="M187.403 280.083C188.195 280.009 188.993 280.083 189.791 280.083C190.726 280.083 191.65 279.853 192.586 279.848C194.067 279.872 195.502 280.37 196.681 281.269C197.86 282.169 198.722 283.422 199.14 284.847C199.219 285.075 199.233 285.32 199.18 285.555C199.149 285.671 199.078 285.772 198.979 285.839C198.88 285.907 198.76 285.937 198.641 285.923C198.33 285.072 197.924 284.259 197.43 283.501C196.54 282.284 195.272 281.397 193.825 280.981C192.383 280.571 190.863 280.516 189.395 280.82C188.781 280.935 188.184 281.096 187.587 281.263L184.717 282.057C184.189 282.201 183.655 282.344 183.144 282.534C182.748 282.684 182.071 283.23 181.681 283.253C181.153 283.253 181.578 282.793 181.813 282.482C182.281 281.842 182.937 281.363 183.69 281.113C184.882 280.624 186.129 280.278 187.403 280.083Z" fill="#6C63FF"/>
<path d="M194.646 312.434C195.341 314.666 196.035 316.904 196.908 319.073C198.467 322.845 200.432 326.435 202.768 329.78C204.272 331.983 205.889 334.106 207.612 336.143C209.764 338.691 212.169 341.257 212.938 344.508C213.38 346.395 213.23 348.357 213.414 350.261C213.598 352.165 214.223 354.219 215.773 355.37C216.886 356.187 218.304 356.434 219.664 356.653C220.634 356.808 221.851 356.86 222.362 356.014C222.535 355.668 222.627 355.286 222.632 354.898L222.861 352.085C222.913 351.475 223.131 350.698 223.734 350.669C224.336 350.641 224.652 351.452 225.168 351.82C225.857 352.303 226.89 351.82 227.269 351.089C227.581 350.298 227.601 349.421 227.326 348.616C226.907 347.015 226.154 345.522 225.119 344.233C224.083 342.944 222.788 341.889 221.317 341.136C220.294 340.722 219.312 340.211 218.384 339.612C217.443 338.792 216.665 337.803 216.089 336.695C210.757 327.91 205.402 319.073 201.648 309.5C200.908 307.791 200.406 305.989 200.156 304.143C199.978 302.262 200.265 300.369 200.391 298.482C200.614 295.092 200.3 291.688 199.462 288.397C199.279 287.532 198.953 286.703 198.497 285.946C196.953 283.587 193.332 283.242 191.036 284.864C190.19 285.516 189.488 286.337 188.975 287.275C188.463 288.212 188.15 289.247 188.057 290.313C187.891 292.223 188.993 294.202 189.544 295.979C191.239 301.472 192.94 306.957 194.646 312.434Z" fill="#A1616A"/>
<path d="M226.764 263.255C226.85 262.358 226.047 261.529 225.134 260.954C224.173 260.46 223.25 259.895 222.373 259.262C221.558 258.555 221.111 257.634 220.296 256.927C219.369 256.22 218.318 255.694 217.196 255.379C214.812 254.541 212.308 254.092 209.781 254.05C207.227 254.05 204.616 254.625 202.693 255.931C202.218 256.23 201.809 256.622 201.488 257.082C201.184 257.634 200.99 258.24 200.914 258.866C200.456 260.796 199.835 262.684 199.06 264.509C198.262 266.54 197.413 268.646 195.536 270.217C193.527 271.891 190.456 272.857 189.131 274.882C188.984 275.062 188.881 275.274 188.83 275.501C188.78 275.727 188.782 275.963 188.838 276.188C189.027 276.7 189.636 277.051 190.198 277.374C193.458 279.249 196.27 281.683 197.717 284.588C199.163 287.493 199.123 290.917 197.063 293.592C196.305 294.581 195.26 295.755 196.001 296.75C197.149 298.263 200.988 297.395 201.884 298.994C202.165 299.506 201.998 300.087 201.998 300.645C201.998 302.325 203.611 303.815 205.568 304.592C207.525 305.369 209.793 305.553 211.996 305.651C212.582 304.332 212.639 302.839 212.157 301.48C212.01 301.186 211.953 300.856 211.991 300.53C212.155 300.168 212.41 299.855 212.731 299.621C215.084 297.389 214.585 294.11 213.173 291.457C211.761 288.805 209.557 286.383 208.736 283.593C208.329 282.206 208.329 280.647 209.425 279.497C210.054 278.943 210.733 278.448 211.451 278.018C212.735 277.144 213.724 275.9 214.287 274.451C214.947 272.616 214.86 270.424 216.777 269.187C218.62 268.036 221.208 268.37 223.246 267.582C224.813 266.96 226.638 264.573 226.764 263.255Z" fill="#464353"/>
<path d="M338.051 353.402C329.299 349.772 326.727 347.149 326.727 341.896C326.727 337.869 328.495 333.22 336.243 333.22C340.527 333.157 344.734 334.357 348.342 336.672L350.862 329.992C347.94 328.267 343.819 326.661 337.782 326.46V316.68H332.691V326.863C323.433 328.376 318.072 334.727 318.072 343.098C318.072 351.872 323.238 356.515 333.523 360.548C340.973 363.591 344.87 367.02 344.87 372.566C344.87 378.319 340.043 382.45 332.897 382.45C327.267 382.45 320.885 380.534 317.263 378.112L314.847 384.867C318.371 387.392 324.409 389.204 330.24 389.308V399.491H338.901V389.003C349.232 387.277 354.793 379.798 354.793 371.859C354.793 362.884 348.417 357.637 338.051 353.402Z" fill="url(#paint1_linear_1_487)"/>
<path d="M330.263 397.19V387.007C324.432 386.903 318.394 385.091 314.87 382.565L317.286 375.811C320.908 378.233 327.29 380.149 332.92 380.149C340.066 380.149 344.87 376.018 344.87 370.265C344.87 364.719 340.95 361.29 333.5 358.264C323.238 354.236 318.049 349.588 318.049 340.814C318.049 332.443 323.41 326.092 332.668 324.579V314.396H337.759V324.176C343.796 324.377 347.917 325.988 350.839 327.708L348.319 334.359C344.711 332.045 340.504 330.844 336.22 330.907C328.472 330.907 326.704 335.55 326.704 339.583C326.704 344.824 329.276 347.448 338.028 351.089C348.394 355.324 354.77 360.571 354.77 369.546C354.77 377.514 349.237 384.976 338.878 386.69V397.19H330.263Z" fill="#6C63FF"/>
</g>
</g>
<defs>
<filter id="filter0_d_1_487" x="0" y="0" width="684" height="425.2" filterUnits="userSpaceOnUse" color-interpolation-filters="sRGB">
<feFlood flood-opacity="0" result="BackgroundImageFix"/>
<feColorMatrix in="SourceAlpha" type="matrix" values="0 0 0 0 0 0 0 0 0 0 0 0 0 0 0 0 0 0 127 0" result="hardAlpha"/>
<feOffset dy="4"/>
<feGaussianBlur stdDeviation="2"/>
<feComposite in2="hardAlpha" operator="out"/>
<feColorMatrix type="matrix" values="0 0 0 0 0 0 0 0 0 0 0 0 0 0 0 0 0 0 0.25 0"/>
<feBlend mode="normal" in2="BackgroundImageFix" result="effect1_dropShadow_1_487"/>
<feBlend mode="normal" in="SourceGraphic" in2="effect1_dropShadow_1_487" result="shape"/>
</filter>
<linearGradient id="paint0_linear_1_487" x1="179.517" y1="244.546" x2="179.517" y2="134.717" gradientUnits="userSpaceOnUse">
<stop stop-color="#808080" stop-opacity="0.25"/>
<stop offset="0.54" stop-color="#808080" stop-opacity="0.12"/>
<stop offset="1" stop-color="#808080" stop-opacity="0.1"/>
</linearGradient>
<linearGradient id="paint1_linear_1_487" x1="314.87" y1="358.091" x2="354.793" y2="358.091" gradientUnits="userSpaceOnUse">
<stop stop-color="#808080" stop-opacity="0.25"/>
<stop offset="0.54" stop-color="#808080" stop-opacity="0.12"/>
<stop offset="1" stop-color="#808080" stop-opacity="0.1"/>
</linearGradient>
<clipPath id="clip0_1_487">
<rect width="676" height="417.2" fill="white" transform="translate(4)"/>
</clipPath>
</defs>
</svg>
