<svg width="544" height="80" viewBox="0 0 544 80" fill="none" xmlns="http://www.w3.org/2000/svg">
<path d="M2.6 26.48H10.6V54H2.6V26.48ZM12.28 47.88H13.92C14.6667 47.88 15.2267 47.8667 15.6 47.84C16 47.7867 16.2933 47.68 16.48 47.52C16.6667 47.36 16.7867 47.1333 16.84 46.84C16.92 46.5467 16.96 46.12 16.96 45.56C16.96 44.9733 16.92 44.5333 16.84 44.24C16.7867 43.9467 16.6667 43.72 16.48 43.56C16.16 43.2933 15.3067 43.16 13.92 43.16H12.28V37.04H13.68C14.4267 37.04 14.9867 37.0267 15.36 37C15.76 36.9467 16.0533 36.84 16.24 36.68C16.4267 36.52 16.5467 36.3067 16.6 36.04C16.68 35.7467 16.72 35.3467 16.72 34.84C16.72 34.3067 16.68 33.9067 16.6 33.64C16.5467 33.3467 16.4267 33.12 16.24 32.96C16.0533 32.8 15.76 32.7067 15.36 32.68C14.9867 32.6267 14.4267 32.6 13.68 32.6H12.28V26.48H16.84C22.2 26.48 24.88 28.7867 24.88 33.4C24.88 35.3467 24.4933 36.8133 23.72 37.8C22.9733 38.7867 21.7733 39.48 20.12 39.88V40.04C21.8533 40.44 23.0933 41.0667 23.84 41.92C24.6933 42.9333 25.12 44.5067 25.12 46.64C25.12 49.0933 24.4667 50.9333 23.16 52.16C21.8533 53.3867 19.76 54 16.88 54H12.28V47.88ZM29.3969 26.48H37.3969V54H29.3969V26.48ZM42.6 26.48H50.6V54H42.6V26.48ZM52.28 47.88H53.92C54.6667 47.88 55.2267 47.8667 55.6 47.84C56 47.7867 56.2933 47.68 56.48 47.52C56.6667 47.36 56.7867 47.1333 56.84 46.84C56.92 46.5467 56.96 46.12 56.96 45.56C56.96 44.9733 56.92 44.5333 56.84 44.24C56.7867 43.9467 56.6667 43.72 56.48 43.56C56.16 43.2933 55.3067 43.16 53.92 43.16H52.28V37.04H53.68C54.4267 37.04 54.9867 37.0267 55.36 37C55.76 36.9467 56.0533 36.84 56.24 36.68C56.4267 36.52 56.5467 36.3067 56.6 36.04C56.68 35.7467 56.72 35.3467 56.72 34.84C56.72 34.3067 56.68 33.9067 56.6 33.64C56.5467 33.3467 56.4267 33.12 56.24 32.96C56.0533 32.8 55.76 32.7067 55.36 32.68C54.9867 32.6267 54.4267 32.6 53.68 32.6H52.28V26.48H56.84C62.2 26.48 64.88 28.7867 64.88 33.4C64.88 35.3467 64.4933 36.8133 63.72 37.8C62.9733 38.7867 61.7733 39.48 60.12 39.88V40.04C61.8533 40.44 63.0933 41.0667 63.84 41.92C64.6933 42.9333 65.12 44.5067 65.12 46.64C65.12 49.0933 64.4667 50.9333 63.16 52.16C61.8533 53.3867 59.76 54 56.88 54H52.28V47.88Z" fill="white"/>
</svg>
